<?xml version="1.0" standalone="no"?>
<!DOCTYPE svg PUBLIC "-//W3C//DTD SVG 20010904//EN"
 "http://www.w3.org/TR/2001/REC-SVG-20010904/DTD/svg10.dtd">
<svg version="1.0" xmlns="http://www.w3.org/2000/svg"
 width="300.000000pt" height="300.000000pt" viewBox="0 0 300.000000 300.000000"
 preserveAspectRatio="xMidYMid meet">
<metadata>
Created by potrace 1.10, written by Peter Selinger 2001-2011
</metadata>
<g transform="translate(0.000000,300.000000) scale(0.100000,-0.100000)"
fill="#000000" stroke="none">
<path d="M2133 2716 c-11 -13 -39 -76 -62 -140 -24 -64 -46 -114 -49 -111 -3
3 -11 55 -18 116 -9 77 -18 117 -30 130 -16 18 -40 19 -474 19 -438 0 -458 -1
-474 -19 -21 -24 -27 -65 -66 -495 -16 -182 -32 -356 -35 -386 -3 -30 -10
-100 -15 -155 -6 -55 -15 -152 -20 -215 -6 -63 -12 -135 -15 -160 -2 -25 -9
-97 -15 -160 -6 -63 -15 -155 -20 -205 -5 -49 -14 -142 -20 -205 -6 -63 -16
-180 -24 -260 -14 -144 -11 -173 18 -192 6 -4 315 -8 687 -8 642 0 677 1 692
18 21 23 21 65 2 247 -7 77 -17 178 -20 225 -3 47 -8 99 -10 115 -3 17 -9 82
-15 145 -6 63 -13 135 -15 160 -5 51 -17 181 -45 485 -10 116 -22 244 -26 285
-17 169 -20 157 135 570 28 74 51 144 51 156 0 28 -41 64 -72 64 -16 0 -34
-10 -45 -24z m79 -25 c4 -3 -40 -133 -98 -288 -100 -270 -104 -284 -94 -325 8
-33 170 -1717 170 -1767 0 -8 -214 -11 -691 -11 l-692 0 6 68 c4 37 54 572
112 1190 58 618 105 1128 105 1133 0 5 191 9 469 9 l468 0 18 -190 c16 -172
16 -192 2 -208 -17 -19 -37 -68 -132 -327 -37 -99 -89 -241 -117 -315 -27 -74
-68 -184 -90 -245 -41 -112 -72 -189 -86 -214 -5 -9 -29 -15 -68 -17 -176 -9
-298 -126 -311 -298 -4 -57 -1 -82 16 -127 36 -96 132 -185 220 -204 54 -12
140 -7 193 11 74 24 171 123 192 195 35 117 11 230 -68 316 -43 48 -48 57 -43
88 3 19 12 49 21 67 8 18 30 76 49 128 20 52 75 201 123 330 48 129 95 264
106 300 19 68 25 128 9 100 -5 -8 -89 -230 -186 -494 -154 -414 -176 -480
-162 -487 68 -38 123 -127 133 -215 13 -108 -49 -225 -147 -278 -40 -22 -70
-30 -126 -34 -67 -4 -79 -2 -138 27 -148 73 -203 238 -130 387 30 62 69 98
143 131 43 20 65 24 123 21 l71 -3 291 783 c271 730 292 782 311 776 12 -3 24
-9 28 -13z"/>
</g>
</svg>
