<?xml version="1.0" standalone="no"?>
<!DOCTYPE svg PUBLIC "-//W3C//DTD SVG 20010904//EN"
 "http://www.w3.org/TR/2001/REC-SVG-20010904/DTD/svg10.dtd">
<svg version="1.0" xmlns="http://www.w3.org/2000/svg"
 width="300.000000pt" height="300.000000pt" viewBox="0 0 300.000000 300.000000"
 preserveAspectRatio="xMidYMid meet">
<metadata>
Created by potrace 1.10, written by Peter Selinger 2001-2011
</metadata>
<g transform="translate(0.000000,300.000000) scale(0.100000,-0.100000)"
fill="#000000" stroke="none">
<path d="M1452 2838 c-12 -14 -22 -40 -24 -63 l-3 -40 -191 -3 c-173 -2 -193
-4 -208 -21 -21 -23 -27 -66 -66 -495 -16 -182 -32 -356 -35 -386 -3 -30 -10
-100 -15 -155 -6 -55 -15 -152 -20 -215 -6 -63 -12 -135 -15 -160 -2 -25 -9
-97 -15 -160 -6 -63 -15 -155 -20 -205 -5 -49 -14 -142 -20 -205 -6 -63 -16
-180 -24 -260 -14 -144 -11 -173 18 -192 6 -4 315 -8 687 -8 642 0 677 1 692
18 21 23 21 65 2 247 -7 77 -17 178 -20 225 -3 47 -8 99 -10 115 -4 26 -14
132 -31 314 -2 31 -9 101 -14 156 -5 55 -15 154 -20 220 -6 66 -20 208 -30
315 -11 107 -22 227 -25 265 -6 70 -15 162 -40 413 -10 98 -18 139 -31 153
-15 17 -35 19 -208 21 l-191 3 -6 42 c-10 77 -71 109 -117 61z m78 -849 l0
-837 33 -6 c52 -10 135 -63 167 -108 33 -45 60 -123 60 -173 0 -52 -28 -129
-64 -176 -49 -64 -122 -101 -213 -107 -67 -4 -79 -2 -138 27 -99 49 -165 152
-165 256 0 50 27 128 60 173 32 45 115 98 168 108 l32 6 0 837 0 838 30 0 30
0 0 -838z m-80 691 c-7 -13 -12 -260 -13 -755 -2 -404 -5 -736 -8 -739 -2 -2
-29 -15 -60 -30 -112 -52 -177 -146 -186 -270 -4 -57 -1 -82 16 -127 36 -96
132 -185 220 -204 54 -12 140 -7 193 11 74 24 171 123 192 195 49 163 -23 325
-174 395 -35 16 -60 34 -61 43 0 9 -2 340 -4 737 -2 522 -6 727 -14 742 l-12
22 216 0 c193 0 215 -2 215 -17 0 -9 50 -544 110 -1189 61 -646 110 -1178 110
-1184 0 -7 -230 -10 -691 -10 l-692 0 6 68 c4 37 54 572 112 1190 58 618 105
1128 105 1133 0 5 91 9 215 9 212 0 216 0 205 -20z"/>
</g>
</svg>
