<?xml version="1.0" standalone="no"?>
<!DOCTYPE svg PUBLIC "-//W3C//DTD SVG 20010904//EN"
 "http://www.w3.org/TR/2001/REC-SVG-20010904/DTD/svg10.dtd">
<svg version="1.0" xmlns="http://www.w3.org/2000/svg"
 width="300.000000pt" height="300.000000pt" viewBox="0 0 300.000000 300.000000"
 preserveAspectRatio="xMidYMid meet">
<metadata>
Created by potrace 1.10, written by Peter Selinger 2001-2011
</metadata>
<g transform="translate(0.000000,300.000000) scale(0.100000,-0.100000)"
fill="#000000" stroke="none">
<path d="M772 2717 c-12 -13 -22 -32 -22 -43 0 -11 42 -130 93 -264 l92 -245
0 -130 c-1 -71 -4 -159 -8 -195 -11 -100 -26 -253 -37 -380 -6 -63 -12 -135
-15 -160 -2 -25 -9 -97 -15 -160 -6 -63 -15 -155 -20 -205 -5 -49 -14 -142
-20 -205 -6 -63 -16 -180 -24 -260 -14 -144 -11 -173 18 -192 6 -4 315 -8 687
-8 642 0 677 1 692 18 21 23 21 65 2 247 -7 77 -17 178 -20 225 -3 47 -8 99
-10 115 -4 26 -14 132 -31 314 -2 31 -9 101 -14 156 -5 55 -15 154 -20 220 -6
66 -20 208 -30 315 -11 107 -22 227 -25 265 -6 70 -15 162 -40 413 -10 99 -18
139 -31 153 -16 18 -37 19 -474 19 -532 0 -486 11 -501 -117 -14 -118 -20
-146 -29 -137 -4 5 -27 58 -49 118 -22 60 -48 118 -57 128 -23 25 -66 23 -92
-5z m355 -789 l291 -783 71 3 c58 3 80 -1 123 -21 74 -33 113 -69 143 -131 34
-70 41 -139 21 -208 -35 -122 -132 -198 -263 -206 -67 -4 -79 -2 -138 27 -78
38 -128 98 -151 179 -35 120 20 263 123 321 15 8 9 28 -45 172 -85 227 -291
781 -410 1104 -55 149 -103 278 -107 287 -5 13 -1 20 16 27 13 5 27 10 30 10
3 1 136 -351 296 -781z m843 755 c0 -9 50 -544 110 -1189 61 -646 110 -1178
110 -1184 0 -7 -230 -10 -690 -10 -635 0 -690 1 -690 16 0 37 161 1741 166
1764 5 20 9 11 20 -42 8 -37 48 -157 89 -266 82 -219 89 -238 133 -362 17 -47
45 -121 62 -165 16 -44 30 -89 30 -99 0 -10 -16 -34 -35 -53 -85 -83 -117
-224 -76 -334 36 -96 132 -185 220 -204 54 -12 140 -7 193 11 74 24 171 123
192 195 21 69 20 139 -1 208 -14 44 -31 69 -78 116 -67 67 -132 97 -219 100
-28 1 -54 3 -59 4 -11 2 -27 42 -122 301 -47 129 -92 251 -100 270 -8 19 -53
141 -100 270 -48 129 -96 248 -107 264 -20 28 -20 34 -9 165 7 75 15 160 18
189 l6 52 468 0 c429 0 469 -1 469 -17z"/>
</g>
</svg>
