<?xml version="1.0" standalone="no"?>
<!DOCTYPE svg PUBLIC "-//W3C//DTD SVG 20010904//EN"
 "http://www.w3.org/TR/2001/REC-SVG-20010904/DTD/svg10.dtd">
<svg version="1.0" xmlns="http://www.w3.org/2000/svg"
 width="300.000000pt" height="300.000000pt" viewBox="0 0 300.000000 300.000000"
 preserveAspectRatio="xMidYMid meet">
<metadata>
Created by potrace 1.10, written by Peter Selinger 2001-2011
</metadata>
<g transform="translate(0.000000,300.000000) scale(0.100000,-0.100000)"
fill="#000000" stroke="none">
<path d="M573 1762 c-249 -141 -452 -259 -452 -262 0 -3 203 -121 452 -262
l452 -256 3 169 2 169 491 0 490 0 -3 -170 c-2 -94 -2 -170 0 -170 1 0 203
115 448 255 246 140 450 255 455 255 5 0 9 5 9 10 0 6 -4 10 -9 10 -5 0 -209
115 -455 255 -245 140 -447 255 -448 255 -2 0 -2 -76 0 -170 l3 -170 -490 0
-491 0 -2 169 -3 169 -452 -256z m429 62 c3 -129 4 -137 27 -155 22 -18 46
-19 491 -19 437 0 469 1 490 18 21 17 23 26 23 144 0 70 3 132 7 139 8 12 48
-8 200 -96 36 -21 110 -63 165 -95 313 -177 426 -243 431 -252 8 -13 -10 -30
-66 -60 -83 -46 -125 -70 -135 -78 -5 -4 -35 -21 -65 -37 -83 -45 -134 -74
-145 -83 -5 -4 -35 -21 -65 -37 -83 -45 -134 -74 -145 -83 -31 -23 -168 -91
-173 -85 -4 3 -7 64 -8 136 -1 109 -4 133 -19 149 -18 19 -34 20 -490 20 -581
0 -525 19 -525 -176 0 -80 -4 -134 -10 -134 -5 0 -44 20 -86 45 -41 25 -77 45
-79 45 -2 0 -36 19 -77 43 -40 24 -95 56 -123 71 -105 58 -300 171 -305 176
-3 3 -32 19 -65 37 -33 17 -61 36 -63 41 -1 5 152 97 340 204 449 256 452 258
460 258 3 0 8 -61 10 -136z"/>
</g>
</svg>
